# xmcd CD database file
#
# Track frame offsets:
#	150
#	25524
#	67824
#	107076
#	133368
#	166068
#	195279
#
# Disc length: 2935 seconds
#
# Revision: 1
# Processed by: cddbd v1.5.1PL0 Copyright (c) Steve Scherf et al.
# Submitted via: CDex 1.50
#
DISCID=4f0b7507
DTITLE=Trigon - 7 steps
DYEAR=2005
DGENRE=Jazz
TTITLE0=Buiestras
TTITLE1=Lume, Lume
TTITLE2=Hora 'n' tella
TTITLE3=Trenul vechi
TTITLE4=Mars de aici!
TTITLE5=Tri F
TTITLE6=Caval 'i' coda
EXTD=YEAR: 2005
EXTT0=
EXTT1=
EXTT2=
EXTT3=
EXTT4=
EXTT5=
EXTT6=
PLAYORDER=
